<?xml version="1.0" standalone="no"?>
<!DOCTYPE svg PUBLIC "-//W3C//DTD SVG 20010904//EN"
 "http://www.w3.org/TR/2001/REC-SVG-20010904/DTD/svg10.dtd">
<svg version="1.0" xmlns="http://www.w3.org/2000/svg"
 width="480.000000pt" height="360.000000pt" viewBox="0 0 480.000000 360.000000"
 preserveAspectRatio="xMidYMid meet">

<g transform="translate(0.000000,360.000000) scale(0.100000,-0.100000)"
fill="#000000" stroke="none">
<path d="M0 1800 l0 -1800 95 0 95 0 0 1800 0 1800 -95 0 -95 0 0 -1800z"/>
<path d="M460 1800 l0 -1800 1930 0 1930 0 0 1800 0 1800 -1930 0 -1930 0 0
-1800z m3342 1340 c155 -23 250 -87 284 -194 10 -31 15 -58 12 -61 -3 -3 -72
-8 -154 -12 l-149 -6 -17 36 c-26 55 -60 72 -141 72 -63 0 -71 -2 -93 -28 -19
-22 -22 -32 -14 -47 16 -29 39 -38 170 -65 332 -68 433 -138 433 -301 0 -80
-28 -139 -94 -198 -83 -74 -198 -106 -384 -106 -195 1 -311 36 -388 119 -40
43 -87 138 -87 176 0 15 61 23 218 27 l94 3 13 -38 c26 -74 79 -107 174 -107
65 0 116 26 131 66 11 28 8 37 -22 71 -20 21 -41 28 -246 77 -121 29 -194 61
-246 106 -77 68 -95 154 -52 245 28 60 54 85 125 120 96 48 279 67 433 45z
m-2537 -22 c2 -7 36 -119 75 -248 39 -129 73 -242 76 -250 5 -12 68 181 150
458 l15 52 215 0 214 0 0 -445 0 -446 -132 3 -133 3 -5 318 -5 319 -73 -244
c-41 -133 -84 -277 -96 -318 l-22 -75 -121 -3 -122 -3 -24 78 c-14 43 -58 188
-98 323 l-74 245 -5 -320 -5 -320 -132 -3 -133 -3 0 446 0 445 215 0 c164 0
217 -3 220 -12z m1728 -411 c103 -232 190 -432 194 -445 l5 -22 -168 2 -168 3
-27 70 -26 70 -183 0 -183 0 -26 -70 -27 -70 -154 -3 c-85 -1 -160 0 -166 2
-8 3 55 156 184 445 l195 441 181 0 181 0 188 -423z m-95 -682 c74 -18 149
-54 178 -87 40 -43 84 -151 67 -161 -5 -3 -73 -8 -153 -11 l-146 -7 -17 35
c-25 53 -69 76 -145 76 -53 0 -67 -4 -87 -25 -48 -47 -23 -77 83 -101 296 -64
359 -86 427 -145 51 -45 75 -100 75 -174 0 -138 -102 -242 -280 -286 -34 -8
-109 -13 -195 -13 -212 1 -319 34 -395 120 -40 46 -80 129 -80 167 0 26 1 27
58 27 31 0 100 3 152 6 l95 7 21 -51 c25 -60 64 -87 134 -97 90 -12 170 28
170 85 0 51 -50 80 -180 107 -291 58 -410 140 -410 283 0 119 110 223 262 249
88 15 296 12 366 -4z m-1720 -442 l2 -443 -165 0 c-164 0 -165 0 -165 23 0 47
-1 813 0 840 l0 27 163 -2 162 -3 3 -442z m849 423 c65 -23 127 -75 155 -130
30 -57 32 -183 3 -241 -29 -59 -86 -110 -151 -136 -50 -19 -85 -23 -224 -28
l-165 -6 -3 -162 -2 -163 -165 0 -165 0 0 438 c0 241 3 442 7 446 4 4 154 6
333 4 285 -4 332 -6 377 -22z m1947 -5 c116 -46 170 -124 170 -250 1 -119 -61
-209 -174 -253 -45 -18 -84 -22 -220 -27 l-165 -6 -3 -162 -2 -163 -165 0
-165 0 0 438 c0 241 3 442 8 446 4 4 153 6 332 4 310 -4 328 -5 384 -27z
m-2889 -1079 c6 -4 23 -47 39 -97 l29 -90 31 95 31 95 53 3 52 3 0 -150 0
-151 -35 0 -35 0 -1 93 -1 92 -29 -92 -30 -93 -37 0 -37 0 -30 103 -30 102 -3
-102 -3 -103 -34 0 -35 0 0 143 c0 79 3 147 7 150 9 9 85 9 98 -1z m521 -13
c109 -52 110 -215 2 -268 -75 -36 -182 -20 -230 35 -43 50 -42 152 4 201 51
55 148 69 224 32z m172 -44 c13 -33 33 -80 44 -105 l20 -45 41 105 42 105 55
2 c107 3 100 13 100 -152 l0 -145 -40 0 -39 0 -3 138 -3 137 -56 -135 -56
-135 -44 0 -43 0 -58 135 c-32 74 -58 141 -58 148 0 9 12 12 37 10 35 -3 38
-6 61 -63z m440 53 c5 -7 20 -47 32 -88 12 -41 24 -79 27 -83 3 -5 19 33 37
85 l31 93 53 3 52 3 0 -150 0 -151 -35 0 -35 0 -1 98 c-1 104 -1 104 -39 -25
l-22 -73 -37 0 -38 0 -31 103 -31 102 0 -102 -1 -103 -35 0 -35 0 0 143 c0 79
3 147 7 150 11 12 90 7 101 -5z m340 -140 l3 -148 -35 0 c-22 0 -36 6 -40 16
-8 20 -8 232 0 262 5 19 12 23 38 20 l31 -3 3 -147z m300 120 l3 -28 -95 0
-96 0 0 -30 0 -30 85 0 85 0 0 -31 0 -31 -62 2 c-109 4 -108 4 -108 -35 l0
-35 94 0 c67 0 96 -4 99 -12 11 -34 -4 -38 -139 -38 l-134 0 0 143 c0 79 3
147 7 151 4 3 63 5 132 4 l126 -3 3 -27z m171 -64 l70 -97 3 94 3 94 30 0 30
0 3 -147 3 -148 -39 0 c-36 0 -41 4 -102 87 l-65 87 -3 -87 -3 -87 -34 0 -35
0 0 143 c0 79 3 147 7 150 3 4 19 7 34 7 23 0 38 -15 98 -96z m425 90 c9 -3
16 -17 16 -30 0 -22 -4 -24 -50 -24 l-49 0 -3 -117 -3 -118 -37 -3 -38 -3 0
120 0 121 -50 0 c-46 0 -50 2 -50 23 0 13 3 27 7 30 8 9 236 9 257 1z m266
-16 c73 -38 101 -126 64 -204 -30 -62 -99 -91 -192 -79 -42 5 -62 14 -90 40
-33 30 -36 38 -40 96 -3 55 0 69 20 99 47 71 152 91 238 48z m-2129 -394 c33
-30 43 -55 28 -65 -23 -14 -52 -10 -74 11 -34 32 -105 32 -105 0 0 -14 11 -22
43 -30 99 -24 117 -32 136 -57 54 -68 -11 -143 -124 -143 -62 0 -110 22 -129
59 -23 43 -20 51 18 51 25 0 38 -6 50 -25 30 -45 141 -28 123 19 -4 9 -31 20
-66 27 -33 6 -73 20 -90 30 -57 34 -51 107 12 135 44 20 151 13 178 -12z m316
6 c55 -25 83 -70 83 -135 0 -93 -68 -155 -170 -155 -102 0 -170 62 -170 155 0
33 7 62 20 83 40 66 153 91 237 52z m327 6 c42 -18 82 -66 64 -78 -23 -14 -63
-8 -81 12 -26 31 -90 27 -116 -6 -33 -42 -25 -131 13 -156 6 -4 28 -8 48 -8
28 0 42 6 60 29 21 25 26 27 56 19 l33 -9 -18 -32 c-59 -101 -247 -82 -283 29
-15 45 -8 115 15 150 35 54 140 79 209 50z m167 4 c4 0 10 -62 11 -137 l3
-136 61 134 60 134 42 3 43 3 68 -143 c38 -79 67 -146 64 -150 -5 -10 -55 -10
-68 0 -6 4 -16 19 -22 35 -12 26 -16 27 -82 27 -66 0 -69 -1 -81 -29 -15 -36
-19 -38 -100 -37 l-65 1 -3 147 c-2 133 -1 147 15 151 10 3 24 3 31 1 8 -2 18
-4 23 -4z m934 -4 c43 -18 75 -63 54 -77 -22 -13 -59 -11 -65 5 -9 24 -61 40
-89 28 -38 -18 -31 -40 18 -52 99 -24 117 -32 136 -57 25 -31 27 -61 5 -92
-51 -72 -220 -66 -259 10 -22 41 -19 49 17 49 22 0 38 -8 53 -25 24 -31 87
-38 112 -12 25 25 9 44 -48 56 -75 16 -116 38 -129 71 -32 78 91 139 195 96z
m721 -7 c75 -36 104 -130 64 -208 -47 -94 -212 -109 -288 -28 -50 53 -48 154
4 208 49 51 147 64 220 28z m-3127 -131 l69 -143 1 143 1 142 40 0 40 0 0
-120 0 -120 86 0 85 0 -3 -27 -3 -28 -163 -1 -164 -1 -16 34 c-16 33 -16 33
-84 33 -68 0 -68 0 -82 -34 -12 -30 -19 -34 -51 -34 -46 0 -46 2 34 172 l60
126 41 0 41 0 68 -142z m1911 22 l0 -120 84 0 c68 0 85 -3 90 -16 14 -36 -12
-45 -128 -42 l-111 3 -3 148 -3 147 36 0 35 0 0 -120z m260 -24 c0 -91 -4
-147 -11 -151 -5 -4 -21 -4 -35 -1 l-24 6 0 145 0 145 35 0 35 0 0 -144z m474
49 l30 -90 29 93 30 92 53 0 54 0 0 -145 0 -145 -35 0 -35 0 -1 98 0 97 -29
-94 c-28 -92 -40 -111 -70 -111 -28 0 -36 15 -66 115 l-29 100 -3 -102 -3
-103 -34 0 -35 0 0 145 0 146 57 -3 56 -3 31 -90z"/>
<path d="M2564 2738 l-51 -143 105 -3 c57 -1 106 -1 108 0 4 5 -99 288 -106
288 -3 0 -28 -64 -56 -142z"/>
<path d="M1640 1746 l0 -96 66 0 c115 0 168 25 180 87 5 25 0 37 -24 64 -30
34 -32 34 -126 37 l-96 4 0 -96z"/>
<path d="M3580 1746 l0 -96 66 0 c78 0 137 15 161 42 27 30 22 84 -10 116 -25
25 -35 27 -122 30 l-95 4 0 -96z"/>
<path d="M1450 845 c-35 -37 -33 -110 4 -142 27 -23 76 -30 111 -17 47 18 60
120 20 159 -34 35 -102 35 -135 0z"/>
<path d="M3562 847 c-17 -18 -22 -36 -22 -74 0 -44 4 -55 26 -72 38 -30 98
-28 129 4 19 18 25 35 25 70 0 63 -31 95 -93 95 -33 0 -49 -6 -65 -23z"/>
<path d="M1755 455 c-19 -18 -25 -35 -25 -70 0 -62 32 -95 90 -95 58 0 90 33
90 95 0 62 -32 95 -90 95 -30 0 -47 -6 -65 -25z"/>
<path d="M2561 412 c-12 -23 -21 -44 -21 -47 0 -3 18 -5 40 -5 22 0 40 2 40 4
0 2 -9 23 -19 46 l-19 43 -21 -41z"/>
<path d="M3908 466 c-25 -19 -40 -66 -33 -103 17 -93 158 -99 181 -8 10 39 -4
93 -29 110 -26 18 -96 19 -119 1z"/>
<path d="M800 412 c-8 -20 -16 -40 -18 -44 -2 -5 14 -8 37 -8 l40 0 -15 38
c-23 54 -28 56 -44 14z"/>
<path d="M4600 1800 l0 -1800 100 0 100 0 0 1800 0 1800 -100 0 -100 0 0
-1800z"/>
</g>
</svg>
